<svg width="1025" height="61" viewBox="0 0 1025 61" fill="none" xmlns="http://www.w3.org/2000/svg">
<path d="M927.396 36.6743C926.997 36.0484 926.773 35.3267 926.748 34.5848C926.66 33.8222 926.645 33.043 926.505 32.2891C926.224 30.7719 925.323 30.398 924.001 31.2214C923.601 31.4901 923.216 31.7794 922.846 32.0882C922.325 32.5163 921.754 32.881 921.146 33.1746C920.777 33.3844 920.364 33.5046 919.939 33.5254C919.515 33.5461 919.092 33.4669 918.704 33.2942C918.316 33.1215 917.974 32.86 917.705 32.5308C917.437 32.2017 917.25 31.814 917.158 31.3992C916.988 30.6982 916.883 29.9829 916.845 29.2624C916.727 28.2832 916.944 27.0778 915.856 26.5625C914.742 26.0364 913.984 27.0009 913.198 27.5923C912.597 28.0745 911.946 28.4912 911.256 28.835C910.903 29.0234 910.513 29.1308 910.113 29.1494C909.713 29.168 909.315 29.0973 908.946 28.9424C908.577 28.7875 908.247 28.5524 907.98 28.2541C907.713 27.9558 907.516 27.6019 907.404 27.218C907.175 26.4315 907.049 25.6188 907.029 24.8001C907.085 23.9286 906.844 23.064 906.347 22.3465C906.064 22.0319 906.207 21.7181 906.345 21.41C906.542 20.9689 906.818 20.8217 907.225 21.1943C907.81 21.7077 908.194 22.4123 908.308 23.1825C908.406 23.8486 908.442 24.5235 908.524 25.1919C908.56 25.6712 908.636 26.1466 908.752 26.6129C908.783 26.8183 908.863 27.013 908.987 27.1796C909.111 27.3462 909.274 27.4796 909.462 27.5678C909.65 27.656 909.857 27.6963 910.064 27.6852C910.271 27.674 910.473 27.6117 910.65 27.5038C911.18 27.2711 911.674 26.9652 912.119 26.595C912.599 26.1935 913.104 25.822 913.63 25.4826C914.02 25.1886 914.48 25.0024 914.965 24.9427C915.45 24.8829 915.941 24.9518 916.391 25.1423C916.841 25.3329 917.232 25.6384 917.526 26.0281C917.82 26.4179 918.007 26.8782 918.067 27.3628C918.238 28.1077 918.245 28.8895 918.342 29.6525C918.45 30.5022 918.366 31.4959 919.305 31.9209C920.244 32.3459 920.949 31.6633 921.652 31.1717C922.205 30.7855 922.705 30.3231 923.274 29.9638C925.418 28.6118 927.466 29.4798 927.934 31.9612C928.105 32.8564 928.104 33.7825 928.236 34.6873C928.494 36.461 929.453 36.9034 930.944 35.9268C931.587 35.5054 932.166 34.9884 932.792 34.5385C933.436 34.0224 934.233 33.7329 935.059 33.7147C935.379 33.7183 935.841 33.6652 935.921 34.0398C936.015 34.4667 935.774 35.0913 935.389 35.109C933.769 35.1784 932.879 36.4453 931.679 37.191C929.948 38.2673 928.442 38.1199 927.396 36.6743Z" fill="#FFCC00"/>
<path d="M945.264 25.7868C945.15 25.8235 944.971 25.8885 944.787 25.9394C943.584 26.2658 942.371 26.5589 941.179 26.9281C940.566 27.1181 940.298 26.9377 940.147 26.3549C939.829 25.099 939.502 23.8468 939.142 22.6021C938.991 22.0849 939.078 21.8127 939.648 21.6736C940.905 21.3646 942.152 21.0121 943.394 20.6491C943.943 20.4905 944.276 20.5513 944.429 21.1999C944.726 22.4604 945.101 23.702 945.431 24.9537C945.507 25.2223 945.635 25.5203 945.264 25.7868Z" fill="#FFCC00"/>
<path d="M907.843 39.328C908.117 39.6851 908.318 40.0927 908.435 40.5276C908.552 40.9625 908.582 41.4161 908.523 41.8625C908.465 42.309 908.319 42.7395 908.094 43.1296C907.869 43.5197 907.569 43.8616 907.212 44.136C906.855 44.4103 906.448 44.6115 906.013 44.7283C905.578 44.8451 905.124 44.8751 904.678 44.8165C904.231 44.758 903.801 44.6121 903.411 44.3872C903.021 44.1623 902.679 43.8627 902.404 43.5056C902.114 43.1499 901.9 42.7379 901.777 42.2955C901.653 41.8532 901.622 41.3901 901.686 40.9353C901.751 40.4806 901.908 40.044 902.149 39.653C902.39 39.262 902.709 38.9251 903.087 38.6634C903.442 38.3925 903.847 38.1946 904.279 38.0813C904.711 37.968 905.161 37.9415 905.603 38.0033C906.046 38.0651 906.471 38.214 906.856 38.4414C907.24 38.6688 907.575 38.9701 907.843 39.328ZM906.376 42.954C906.579 42.7863 906.747 42.5799 906.87 42.3468C906.992 42.1137 907.068 41.8585 907.091 41.596C907.114 41.3336 907.085 41.0692 907.005 40.8181C906.925 40.5671 906.796 40.3344 906.625 40.1337C906.298 39.7448 905.833 39.4984 905.327 39.4464C904.822 39.3945 904.316 39.5411 903.917 39.8553C903.704 40.0105 903.524 40.2079 903.391 40.4351C903.257 40.6623 903.171 40.9146 903.138 41.1763C903.106 41.438 903.128 41.7036 903.202 41.9566C903.276 42.2097 903.402 42.4448 903.57 42.6474C903.731 42.8561 903.933 43.0301 904.163 43.1591C904.392 43.2881 904.646 43.3693 904.908 43.398C905.17 43.4266 905.435 43.402 905.687 43.3257C905.939 43.2495 906.174 43.123 906.376 42.954Z" fill="#FFCC00"/>
<path d="M14.9831 23.4982C15.5876 23.929 16.0652 24.5143 16.3662 25.1928C16.7334 25.8667 17.039 26.5835 17.4508 27.2301C18.2791 28.5315 19.2538 28.5412 20.1721 27.2827C20.4419 26.8841 20.6909 26.4716 20.9178 26.0471C21.2412 25.4549 21.6338 24.9032 22.0873 24.4036C22.3511 24.0708 22.6894 23.8047 23.0749 23.6267C23.4605 23.4486 23.8824 23.3636 24.3068 23.3786C24.7312 23.3935 25.1462 23.5079 25.5182 23.7126C25.8903 23.9173 26.2091 24.2065 26.4489 24.557C26.8693 25.1431 27.2343 25.767 27.5391 26.4207C28.015 27.2844 28.2652 28.4831 29.467 28.5534C30.6962 28.6245 31.0379 27.4466 31.545 26.6043C31.9219 25.9321 32.3696 25.3022 32.8804 24.7253C33.1372 24.4185 33.459 24.1727 33.8227 24.0059C34.1863 23.8391 34.5825 23.7553 34.9825 23.7608C35.3826 23.7663 35.7763 23.8608 36.1352 24.0375C36.4942 24.2143 36.8092 24.4687 37.0574 24.7824C37.5637 25.426 37.9845 26.1324 38.3094 26.884C38.5839 27.7127 39.1306 28.4243 39.8607 28.9031C40.2406 29.089 40.2253 29.4335 40.2132 29.7706C40.1954 30.2534 39.9946 30.4931 39.478 30.2999C38.7432 30.043 38.1236 29.5334 37.7297 28.8621C37.3895 28.2812 37.1033 27.6691 36.7771 27.0801C36.5643 26.6492 36.3156 26.2371 36.0334 25.8482C35.9285 25.6691 35.7809 25.5188 35.6037 25.4107C35.4266 25.3026 35.2254 25.24 35.0182 25.2285C34.811 25.217 34.6042 25.2571 34.4162 25.345C34.2282 25.4329 34.0649 25.566 33.9409 25.7324C33.5367 26.1465 33.1927 26.6152 32.9187 27.1249C32.6238 27.6769 32.2951 28.2102 31.9345 28.7217C31.683 29.1402 31.3259 29.4851 30.8989 29.7219C30.472 29.9587 29.9902 30.0789 29.5021 30.0705C29.014 30.0622 28.5366 29.9255 28.118 29.6742C27.6994 29.423 27.3543 29.066 27.1174 28.6391C26.6801 28.0125 26.3812 27.2903 26.0052 26.6194C25.5868 25.8721 25.2928 24.9195 24.2631 24.8769C23.2334 24.8344 22.836 25.7307 22.3676 26.4499C22 27.0148 21.709 27.6308 21.3164 28.1767C19.8351 30.2324 17.6112 30.1944 16.2482 28.0691C15.7552 27.303 15.4094 26.444 14.9482 25.6547C14.0452 24.1068 12.9905 24.0556 11.9735 25.5192C11.5351 26.1505 11.1922 26.8463 10.7804 27.4977C10.3759 28.2175 9.7456 28.7841 8.98695 29.11C8.68874 29.2265 8.2798 29.4488 8.06588 29.1313C7.81917 28.7706 7.80826 28.1015 8.15838 27.9411C9.63454 27.2703 9.98533 25.7627 10.8195 24.622C12.0213 22.9764 13.472 22.5496 14.9831 23.4982Z" fill="#00FFC2"/>
<path d="M2.49314 40.2795C2.58465 40.203 2.72625 40.0758 2.87747 39.9598C3.87112 39.2068 4.88599 38.481 5.85264 37.6927C6.35009 37.2871 6.66596 37.354 7.02401 37.8378C7.78875 38.8833 8.56109 39.9215 9.36055 40.9408C9.69356 41.364 9.71499 41.6489 9.23928 41.9909C8.18892 42.7481 7.16506 43.5415 6.14924 44.343C5.69978 44.6955 5.36817 44.7638 4.98373 44.2197C4.23628 43.1623 3.42377 42.1516 2.64956 41.1146C2.47913 40.8938 2.24819 40.6658 2.49314 40.2795Z" fill="#00FFC2"/>
<path d="M32.1181 13.7198C31.7301 13.4914 31.391 13.1888 31.1199 12.8294C30.8489 12.4699 30.6514 12.0606 30.5385 11.6248C30.4257 11.1889 30.3998 10.7352 30.4623 10.2893C30.5249 9.84352 30.6746 9.41436 30.903 9.02641C31.1314 8.63845 31.4339 8.29928 31.7934 8.02825C32.1529 7.75723 32.5622 7.55966 32.998 7.44682C33.4338 7.33399 33.8876 7.3081 34.3334 7.37063C34.7792 7.43317 35.2084 7.5829 35.5963 7.81129C35.9988 8.0324 36.3511 8.33438 36.6312 8.69823C36.9113 9.06208 37.113 9.47994 37.2239 9.92554C37.3347 10.3711 37.3521 10.8348 37.275 11.2875C37.198 11.7402 37.0281 12.172 36.7761 12.5558C36.5484 12.9399 36.2468 13.275 35.8887 13.5417C35.5306 13.8085 35.1232 14.0015 34.69 14.1098C34.2568 14.218 33.8064 14.2393 33.365 14.1724C32.9235 14.1054 32.4997 13.9516 32.1181 13.7198ZM32.1208 9.80916C31.9951 10.0407 31.9167 10.2949 31.8902 10.5569C31.8637 10.819 31.8895 11.0837 31.9662 11.3357C32.043 11.5877 32.169 11.8219 32.3371 12.0248C32.5051 12.2276 32.7118 12.395 32.9452 12.5172C33.3939 12.7553 33.9177 12.8096 34.4057 12.6686C34.8937 12.5276 35.3078 12.2023 35.5604 11.7616C35.7 11.5379 35.7921 11.2879 35.8312 11.0271C35.8703 10.7664 35.8554 10.5004 35.7876 10.2456C35.7197 9.99078 35.6003 9.75263 35.4367 9.54586C35.2731 9.33908 35.0688 9.16807 34.8365 9.04343C34.6091 8.91017 34.3573 8.82419 34.0959 8.79063C33.8346 8.75707 33.5692 8.77661 33.3156 8.84812C33.062 8.91963 32.8254 9.04161 32.6201 9.20675C32.4148 9.37189 32.245 9.57679 32.1208 9.80916Z" fill="#00FFC2"/>
<path d="M340.024 32.0742C340.719 32.334 341.332 32.7758 341.798 33.3534C342.327 33.9095 342.808 34.5229 343.373 35.041C344.51 36.0841 345.454 35.8413 346.016 34.3879C346.173 33.9329 346.307 33.4701 346.417 33.0012C346.576 32.3455 346.812 31.711 347.121 31.111C347.29 30.7213 347.548 30.3766 347.874 30.1049C348.201 29.8332 348.586 29.6419 349 29.5465C349.414 29.4511 349.845 29.4543 350.257 29.5558C350.669 29.6573 351.052 29.8542 351.375 30.1308C351.932 30.5882 352.446 31.0966 352.91 31.6493C353.593 32.3606 354.145 33.4539 355.324 33.2109C356.53 32.9616 356.555 31.7352 356.827 30.7903C357.018 30.0435 357.287 29.3191 357.631 28.6295C357.8 28.2667 358.047 27.946 358.356 27.6908C358.664 27.4356 359.025 27.2522 359.413 27.154C359.801 27.0558 360.205 27.0453 360.598 27.1231C360.99 27.201 361.361 27.3653 361.682 27.6042C362.337 28.0949 362.926 28.6685 363.435 29.3106C363.914 30.0402 364.627 30.5862 365.456 30.8599C365.871 30.9412 365.945 31.278 366.021 31.6068C366.128 32.0778 365.996 32.3613 365.447 32.3083C364.671 32.2502 363.941 31.9182 363.386 31.3716C362.907 30.8984 362.473 30.3811 362.005 29.8964C361.688 29.5352 361.341 29.2015 360.968 28.8987C360.82 28.7529 360.639 28.6458 360.44 28.5872C360.241 28.5286 360.03 28.5201 359.827 28.5627C359.624 28.6052 359.434 28.6974 359.275 28.831C359.117 28.9645 358.993 29.1354 358.916 29.3282C358.633 29.8328 358.422 30.3746 358.289 30.9379C358.147 31.5475 357.967 32.1477 357.751 32.7352C357.617 33.2045 357.361 33.6301 357.01 33.9693C356.659 34.3085 356.224 34.5493 355.75 34.6675C355.277 34.7857 354.78 34.7771 354.311 34.6427C353.841 34.5082 353.416 34.2526 353.076 33.9015C352.492 33.4093 352.016 32.7889 351.479 32.2381C350.882 31.6244 350.351 30.7801 349.346 31.0054C348.34 31.2306 348.188 32.1994 347.921 33.0154C347.712 33.6562 347.591 34.3266 347.353 34.9555C346.453 37.3247 344.295 37.8633 342.428 36.1628C341.754 35.5501 341.198 34.8097 340.548 34.1665C339.275 32.9047 338.243 33.1281 337.639 34.8051C337.379 35.5285 337.228 36.2894 336.998 37.0252C336.794 37.8252 336.331 38.5357 335.683 39.0468C335.425 39.2365 335.087 39.557 334.798 39.3056C334.467 39.021 334.283 38.3774 334.58 38.1319C335.832 37.102 335.781 35.5548 336.292 34.2369C337.027 32.3362 338.318 31.5486 340.024 32.0742Z" fill="#00FF19"/>
<path d="M332.299 51.5173C332.367 51.4197 332.471 51.2601 332.587 51.109C333.352 50.1244 334.145 49.1607 334.875 48.1491C335.251 47.6285 335.573 47.6115 336.044 47.9863C337.054 48.7984 338.068 49.6016 339.104 50.3795C339.535 50.7022 339.63 50.9719 339.259 51.4253C338.44 52.4287 337.656 53.46 336.882 54.4971C336.539 54.9539 336.236 55.1057 335.724 54.6795C334.729 53.8513 333.682 53.0851 332.666 52.2836C332.444 52.1143 332.162 51.9538 332.299 51.5173Z" fill="#00FF19"/>
<path d="M354.048 18.1943C353.614 18.074 353.208 17.8695 352.853 17.5923C352.498 17.3151 352.202 16.9708 351.98 16.579C351.758 16.1871 351.616 15.7554 351.561 15.3086C351.506 14.8617 351.539 14.4084 351.66 13.9745C351.78 13.5406 351.985 13.1347 352.262 12.7798C352.539 12.425 352.883 12.1282 353.275 11.9065C353.667 11.6847 354.099 11.5423 354.545 11.4874C354.992 11.4325 355.446 11.4661 355.88 11.5864C356.325 11.6959 356.744 11.8965 357.109 12.1756C357.473 12.4546 357.776 12.8061 357.999 13.2079C358.221 13.6097 358.358 14.0532 358.401 14.5104C358.443 14.9677 358.391 15.4288 358.247 15.8648C358.126 16.2948 357.921 16.6965 357.644 17.0469C357.367 17.3972 357.024 17.6891 356.633 17.9057C356.243 18.1224 355.813 18.2594 355.369 18.309C354.926 18.3585 354.476 18.3195 354.048 18.1943ZM353.039 14.4156C352.977 14.6718 352.967 14.9376 353.009 15.1977C353.052 15.4577 353.145 15.7068 353.284 15.9304C353.424 16.154 353.606 16.3476 353.821 16.5001C354.036 16.6526 354.279 16.7608 354.536 16.8185C355.031 16.9325 355.551 16.8494 355.986 16.5869C356.421 16.3245 356.737 15.9031 356.867 15.412C356.944 15.1598 356.968 14.8944 356.938 14.6324C356.909 14.3704 356.825 14.1172 356.694 13.8886C356.563 13.6601 356.386 13.4609 356.174 13.3034C355.962 13.146 355.721 13.0336 355.464 12.9733C355.21 12.9034 354.945 12.8855 354.683 12.9207C354.422 12.9559 354.171 13.0434 353.944 13.1781C353.718 13.3128 353.521 13.4918 353.365 13.7045C353.21 13.9171 353.099 14.159 353.039 14.4156Z" fill="#00FF19"/>
<path d="M276.06 24.7271C276.839 24.7171 277.619 24.7051 278.398 24.6911C279.298 24.6791 280.145 24.6121 280.198 25.9541C280.255 27.3271 279.514 27.5961 278.398 27.6141C276.936 27.6361 275.475 27.6771 274.017 27.7461C273.462 27.7721 272.667 27.5541 272.43 28.1141C272.104 28.8851 272.991 29.2231 273.43 29.6671C274.523 30.7761 275.643 31.8671 276.823 32.8801C277.781 33.7041 277.414 34.2951 276.744 35.0501C276.044 35.8371 275.497 35.7221 274.819 35.0621C273.486 33.7748 272.134 32.5108 270.764 31.2701C269.995 30.5781 269.505 30.8791 269.505 31.8411C269.505 33.5941 269.58 35.3411 269.647 37.0961C269.685 38.0961 269.455 38.7961 268.258 38.8591C267.061 38.9221 266.746 38.3231 266.723 37.2761C266.685 35.5251 266.591 33.7761 266.498 32.0231C266.48 31.6591 266.498 31.2231 266.061 31.0471C265.593 30.8551 265.34 31.2581 265.091 31.5151C263.805 32.8431 262.53 34.1851 261.285 35.5561C260.585 36.3331 260.014 36.1821 259.348 35.5011C258.731 34.8711 258.358 34.3291 259.119 33.5391C260.471 32.1391 261.789 30.7031 263.103 29.2631C263.289 29.0631 263.52 28.7471 263.484 28.5241C263.407 28.0541 262.952 28.0561 262.565 28.0621C260.717 28.0981 258.865 28.1251 257.014 28.1831C256.114 28.2091 255.548 27.9931 255.502 26.9201C255.456 25.8471 255.757 25.2721 256.927 25.2641C258.777 25.2541 260.627 25.1771 262.478 25.1141C262.85 25.1021 263.328 25.1221 263.378 24.6261C263.396 24.4051 263.145 24.1161 262.951 23.9261C261.621 22.6381 260.295 21.3451 258.926 20.1021C258.171 19.4181 257.902 18.8711 258.713 17.9641C259.632 16.9361 260.25 17.2011 261.067 18.0391C262.292 19.2901 263.6 20.4621 264.895 21.6451C265.154 21.8821 265.421 22.3231 265.871 22.0451C266.25 21.8121 266.15 21.3731 266.142 21.0001C266.099 19.2451 266.087 17.4921 265.996 15.7401C265.939 14.6751 266.283 14.1101 267.417 14.0071C268.658 13.8961 268.899 14.5841 268.925 15.5841C268.968 17.4348 269.027 19.2844 269.103 21.1331C269.089 21.4116 269.176 21.6858 269.35 21.9041C269.75 22.2341 270.067 21.8601 270.326 21.5881C271.605 20.2501 272.889 18.9181 274.126 17.5451C274.826 16.7741 275.41 16.4981 276.286 17.3631C277.086 18.1441 277.163 18.7111 276.343 19.5271C274.96 20.8981 273.655 22.3471 272.353 23.7951C271.78 24.4311 271.995 24.8381 272.845 24.8401C273.916 24.8461 274.987 24.8141 276.06 24.7961C276.06 24.7781 276.06 24.7541 276.06 24.7271Z" fill="#FFCC00"/>
<path d="M1020.06 23.7271C1020.84 23.7171 1021.62 23.7051 1022.4 23.6911C1023.3 23.6791 1024.15 23.6121 1024.2 24.9541C1024.26 26.3271 1023.51 26.5961 1022.4 26.6141C1020.94 26.6361 1019.48 26.6771 1018.02 26.7461C1017.46 26.7721 1016.67 26.5541 1016.43 27.1141C1016.1 27.8851 1016.99 28.2231 1017.43 28.6671C1018.52 29.7761 1019.64 30.8671 1020.82 31.8801C1021.78 32.7041 1021.41 33.2951 1020.74 34.0501C1020.04 34.8371 1019.5 34.7221 1018.82 34.0621C1017.49 32.7748 1016.13 31.5108 1014.76 30.2701C1014 29.5781 1013.51 29.8791 1013.51 30.8411C1013.51 32.5941 1013.58 34.3411 1013.65 36.0961C1013.69 37.0961 1013.46 37.7961 1012.26 37.8591C1011.06 37.9221 1010.75 37.3231 1010.72 36.2761C1010.69 34.5251 1010.59 32.7761 1010.5 31.0231C1010.48 30.6591 1010.5 30.2231 1010.06 30.0471C1009.59 29.8551 1009.34 30.2581 1009.09 30.5151C1007.81 31.8431 1006.53 33.1851 1005.29 34.5561C1004.59 35.3331 1004.01 35.1821 1003.35 34.5011C1002.73 33.8711 1002.36 33.3291 1003.12 32.5391C1004.47 31.1391 1005.79 29.7031 1007.1 28.2631C1007.29 28.0631 1007.52 27.7471 1007.48 27.5241C1007.41 27.0541 1006.95 27.0561 1006.57 27.0621C1004.72 27.0981 1002.87 27.1251 1001.01 27.1831C1000.11 27.2091 999.548 26.9931 999.502 25.9201C999.456 24.8471 999.757 24.2721 1000.93 24.2641C1002.78 24.2541 1004.63 24.1771 1006.48 24.1141C1006.85 24.1021 1007.33 24.1221 1007.38 23.6261C1007.4 23.4051 1007.15 23.1161 1006.95 22.9261C1005.62 21.6381 1004.3 20.3451 1002.93 19.1021C1002.17 18.4181 1001.9 17.8711 1002.71 16.9641C1003.63 15.9361 1004.25 16.2011 1005.07 17.0391C1006.29 18.2901 1007.6 19.4621 1008.9 20.6451C1009.15 20.8821 1009.42 21.3231 1009.87 21.0451C1010.25 20.8121 1010.15 20.3731 1010.14 20.0001C1010.1 18.2451 1010.09 16.4921 1010 14.7401C1009.94 13.6751 1010.28 13.1101 1011.42 13.0071C1012.66 12.8961 1012.9 13.5841 1012.93 14.5841C1012.97 16.4348 1013.03 18.2844 1013.1 20.1331C1013.09 20.4116 1013.18 20.6858 1013.35 20.9041C1013.75 21.2341 1014.07 20.8601 1014.33 20.5881C1015.61 19.2501 1016.89 17.9181 1018.13 16.5451C1018.83 15.7741 1019.41 15.4981 1020.29 16.3631C1021.09 17.1441 1021.16 17.7111 1020.34 18.5271C1018.96 19.8981 1017.66 21.3471 1016.35 22.7951C1015.78 23.4311 1016 23.8381 1016.85 23.8401C1017.92 23.8461 1018.99 23.8141 1020.06 23.7961C1020.06 23.7781 1020.06 23.7541 1020.06 23.7271Z" fill="#00E5FF"/>
<path d="M112.5 38C119.956 38 126 31.9558 126 24.5C126 17.0442 119.956 11 112.5 11C105.044 11 99 17.0442 99 24.5C99 31.9558 105.044 38 112.5 38Z" stroke="#FFEE00" stroke-width="2"/>
<path d="M182.5 38C185.538 38 188 35.5376 188 32.5C188 29.4624 185.538 27 182.5 27C179.462 27 177 29.4624 177 32.5C177 35.5376 179.462 38 182.5 38Z" stroke="#FFEE00" stroke-width="2"/>
</svg>
