<svg width="442" height="505" viewBox="0 0 442 505" fill="none" xmlns="http://www.w3.org/2000/svg">
<path opacity="0.1" d="M33.5 426C52.0015 426 67 411.002 67 392.5C67 373.998 52.0015 359 33.5 359C14.9985 359 0 373.998 0 392.5C0 411.002 14.9985 426 33.5 426Z" fill="#FF014E"/>
<path d="M356.5 505C366.165 505 374 497.165 374 487.5C374 477.835 366.165 470 356.5 470C346.835 470 339 477.835 339 487.5C339 497.165 346.835 505 356.5 505Z" fill="#00E5FF"/>
<path d="M196.5 35C206.165 35 214 27.165 214 17.5C214 7.83502 206.165 0 196.5 0C186.835 0 179 7.83502 179 17.5C179 27.165 186.835 35 196.5 35Z" fill="#FFC432"/>
<path d="M111.994 150.5H99C95.1544 150.5 91.4662 148.972 88.747 146.253C86.0277 143.534 84.5 139.846 84.5 136V113C84.5 109.154 86.0277 105.466 88.747 102.747C91.4662 100.028 95.1544 98.5 99 98.5H138C141.846 98.5 145.534 100.028 148.253 102.747C150.972 105.466 152.5 109.154 152.5 113V136C152.5 139.846 150.972 143.534 148.253 146.253C145.534 148.972 141.846 150.5 138 150.5H125.073L118.533 157.04L111.994 150.5Z" fill="#FF014E"/>
<path d="M128.337 129.647V130.558C128.33 131.083 128.118 131.585 127.747 131.956C127.375 132.327 126.874 132.539 126.349 132.546H110.442C109.917 132.539 109.416 132.327 109.044 131.956C108.673 131.585 108.461 131.083 108.454 130.558V129.647C108.454 127.247 111.271 125.753 113.922 124.593L114.171 124.469C114.27 124.425 114.378 124.405 114.487 124.412C114.595 124.419 114.7 124.453 114.792 124.51C115.847 125.212 117.086 125.587 118.354 125.587C119.619 125.573 120.855 125.2 121.916 124.51C122.008 124.453 122.113 124.419 122.221 124.412C122.33 124.405 122.438 124.425 122.537 124.469L122.786 124.593C125.52 125.753 128.337 127.203 128.337 129.647ZM118.396 112.663C119.774 112.735 121.068 113.352 121.992 114.377C122.916 115.402 123.396 116.753 123.325 118.131C123.396 119.51 122.916 120.86 121.992 121.885C121.068 122.91 119.774 123.527 118.396 123.599C117.017 123.527 115.724 122.911 114.799 121.885C113.875 120.86 113.395 119.51 113.466 118.131C113.395 116.752 113.875 115.402 114.799 114.377C115.724 113.352 117.017 112.735 118.396 112.663Z" fill="#FAF9FC"/>
<path d="M358.972 143.408H354C350.154 143.408 346.466 141.88 343.747 139.161C341.028 136.442 339.5 132.754 339.5 128.908V121.079C339.5 117.233 341.028 113.545 343.747 110.826C346.466 108.107 350.154 106.579 354 106.579H373.161C377.007 106.579 380.695 108.107 383.414 110.826C386.133 113.545 387.661 117.233 387.661 121.079V128.908C387.661 132.754 386.133 136.442 383.414 139.161C380.695 141.88 377.007 143.408 373.161 143.408H368.236L363.6 148.039L358.972 143.408Z" fill="#FFC432"/>
<path d="M370.548 128.639V129.284C370.543 129.656 370.393 130.011 370.13 130.274C369.867 130.537 369.512 130.687 369.14 130.692H357.874C357.502 130.687 357.147 130.537 356.884 130.274C356.621 130.011 356.471 129.656 356.466 129.284V128.639C356.466 126.939 358.461 125.881 360.339 125.06L360.515 124.972C360.585 124.941 360.662 124.927 360.739 124.932C360.815 124.937 360.89 124.961 360.955 125.001C361.702 125.499 362.58 125.764 363.478 125.764C364.374 125.754 365.249 125.49 366.001 125.001C366.066 124.961 366.141 124.937 366.217 124.932C366.294 124.927 366.371 124.941 366.441 124.972L366.617 125.06C368.553 125.881 370.548 126.91 370.548 128.639ZM363.507 116.61C364.483 116.662 365.399 117.098 366.054 117.824C366.708 118.551 367.048 119.507 366.998 120.483C367.048 121.459 366.708 122.415 366.053 123.141C365.399 123.867 364.483 124.304 363.507 124.355C362.531 124.304 361.615 123.867 360.961 123.141C360.306 122.415 359.966 121.459 360.016 120.483C359.966 119.507 360.306 118.551 360.96 117.824C361.615 117.098 362.531 116.662 363.507 116.61Z" fill="#FAF9FC"/>
<path d="M66.664 302.508H57.408C53.5624 302.508 49.8742 300.98 47.155 298.261C44.4357 295.542 42.908 291.854 42.908 288.008V272.079C42.908 268.233 44.4357 264.545 47.155 261.826C49.8742 259.107 53.5624 257.579 57.408 257.579H87.161C91.0067 257.579 94.6948 259.107 97.4141 261.826C100.133 264.545 101.661 268.233 101.661 272.079V288.008C101.661 291.854 100.133 295.542 97.4141 298.261C94.6948 300.98 91.0067 302.508 87.161 302.508H77.961L72.311 308.158L66.664 302.508Z" fill="#00E5FF"/>
<path d="M80.784 284.49V285.277C80.7778 285.731 80.5948 286.164 80.274 286.485C79.9531 286.806 79.5198 286.989 79.066 286.995H65.323C64.8695 286.989 64.4363 286.806 64.1154 286.485C63.7946 286.165 63.6115 285.732 63.605 285.278V284.491C63.605 282.416 66.039 281.126 68.329 280.124L68.544 280.017C68.6297 279.979 68.7234 279.962 68.817 279.968C68.9106 279.975 69.0013 280.004 69.081 280.053C69.9928 280.66 71.0637 280.984 72.159 280.984C73.2526 280.972 74.3202 280.649 75.237 280.053C75.3168 280.004 75.4074 279.975 75.5011 279.968C75.5947 279.962 75.6884 279.979 75.774 280.017L75.989 280.124C78.351 281.126 80.784 282.378 80.784 284.49ZM72.195 269.816C73.386 269.878 74.5036 270.411 75.3021 271.297C76.1007 272.183 76.515 273.349 76.454 274.54C76.515 275.731 76.1007 276.898 75.3021 277.784C74.5036 278.669 73.386 279.202 72.195 279.264C71.0041 279.202 69.8865 278.669 69.0879 277.784C68.2894 276.898 67.875 275.731 67.936 274.54C67.875 273.349 68.2894 272.183 69.0879 271.297C69.8865 270.411 71.0041 269.878 72.195 269.816Z" fill="white"/>
<path d="M258.162 201.341H252.408C248.562 201.341 244.874 199.813 242.155 197.094C239.436 194.375 237.908 190.687 237.908 186.841V177.535C237.908 173.689 239.436 170.001 242.155 167.282C244.874 164.563 248.562 163.035 252.408 163.035H273.5C277.346 163.035 281.034 164.563 283.753 167.282C286.472 170.001 288 173.689 288 177.535V186.841C288 190.687 286.472 194.375 283.753 197.094C281.034 199.813 277.346 201.341 273.5 201.341H267.8L262.982 206.159L258.162 201.341Z" fill="#00D707"/>
<path d="M270.201 185.979V186.65C270.196 187.037 270.04 187.407 269.766 187.68C269.493 187.954 269.123 188.11 268.736 188.115H257.019C256.632 188.11 256.262 187.954 255.989 187.68C255.715 187.407 255.559 187.037 255.554 186.65V185.979C255.554 184.209 257.629 183.111 259.582 182.256L259.765 182.164C259.838 182.131 259.918 182.117 259.998 182.122C260.078 182.128 260.155 182.153 260.223 182.195C261 182.712 261.913 182.988 262.847 182.988C263.779 182.978 264.689 182.703 265.471 182.195C265.539 182.153 265.616 182.128 265.696 182.122C265.776 182.117 265.856 182.131 265.929 182.164L266.112 182.256C268.126 183.111 270.201 184.179 270.201 185.979ZM262.878 173.468C263.893 173.522 264.846 173.976 265.527 174.731C266.207 175.486 266.561 176.481 266.509 177.496C266.561 178.511 266.207 179.506 265.527 180.261C264.846 181.016 263.893 181.47 262.878 181.524C261.863 181.471 260.91 181.017 260.229 180.261C259.548 179.506 259.194 178.512 259.246 177.496C259.194 176.48 259.548 175.486 260.229 174.731C260.91 173.975 261.863 173.521 262.878 173.468Z" fill="#FAF9FC"/>
<path d="M400.994 284.5H388C384.154 284.5 380.466 282.972 377.747 280.253C375.028 277.534 373.5 273.846 373.5 270V247C373.5 243.154 375.028 239.466 377.747 236.747C380.466 234.028 384.154 232.5 388 232.5H427C430.846 232.5 434.534 234.028 437.253 236.747C439.972 239.466 441.5 243.154 441.5 247V270C441.5 273.846 439.972 277.534 437.253 280.253C434.534 282.972 430.846 284.5 427 284.5H414.073L407.533 291.04L400.994 284.5Z" fill="#FF014E"/>
<path d="M416.318 252.667C415.75 252.098 415.067 251.655 414.315 251.369C413.563 251.083 412.759 250.959 411.956 251.006C411.152 251.054 410.368 251.271 409.655 251.643C408.942 252.016 408.316 252.535 407.818 253.167C407.337 252.56 406.737 252.058 406.055 251.691C405.373 251.324 404.624 251.1 403.852 251.033C403.081 250.965 402.304 251.056 401.569 251.299C400.833 251.542 400.156 251.933 399.577 252.447C398.998 252.962 398.53 253.589 398.201 254.29C397.873 254.991 397.691 255.752 397.667 256.526C397.643 257.3 397.777 258.071 398.06 258.791C398.344 259.512 398.772 260.167 399.318 260.716L407.582 268.98C407.612 269.011 407.649 269.035 407.688 269.051C407.728 269.068 407.771 269.076 407.814 269.076C407.857 269.076 407.9 269.068 407.94 269.051C407.979 269.035 408.016 269.011 408.046 268.98L416.31 260.716C417.376 259.649 417.976 258.202 417.977 256.693C417.979 255.184 417.382 253.737 416.318 252.667Z" fill="white"/>
</svg>
